<svg width="380" height="298" viewBox="0 0 380 298" fill="none" xmlns="http://www.w3.org/2000/svg">
<path d="M316.167 188.279V49.8063C316.167 44.3403 313.117 39.3311 308.261 36.8219L251.591 7.53927C244.935 4.10001 237 8.93134 237 16.4233V27.5V134.689L316.167 188.279Z" fill="white"/>
<path d="M127.909 7.53717C134.565 4.09791 142.5 8.92995 142.5 16.4219V133.774L190 103.021L374.439 222.434C377.906 224.678 380 228.527 380 232.657V238.895C380 243.026 377.906 246.876 374.438 249.12L302.335 295.774C299.185 297.813 295.143 297.861 291.945 295.899L190 233.341L88.0547 295.899C84.8566 297.861 80.8153 297.813 77.665 295.774L5.5625 249.12C2.09413 246.876 0 243.026 0 238.895V232.657C5.41321e-05 228.527 2.09354 224.678 5.56055 222.434L63.333 185.029V49.8048C63.333 44.3388 66.3833 39.3296 71.2393 36.8204L127.909 7.53717Z" fill="white"/>
</svg>
