<svg width="266" height="207" viewBox="0 0 266 207" fill="none" xmlns="http://www.w3.org/2000/svg">
<path d="M214.751 126.997V37.2724C214.751 33.7306 212.774 30.4849 209.628 28.859L172.908 9.88513C168.595 7.65663 163.454 10.7871 163.454 15.6416V22.8188V92.2729L214.751 126.997Z" fill="white" stroke="black" stroke-width="18"/>
<path d="M92.7678 9.88379C97.0806 7.65543 102.222 10.7862 102.222 15.6406V91.6797L133 71.7529L252.509 149.128C254.755 150.582 256.112 153.076 256.112 155.752V159.794C256.111 162.471 254.755 164.965 252.507 166.419L205.788 196.649C203.747 197.97 201.129 198.001 199.057 196.729L133 156.195L66.9436 196.729C64.8713 198.001 62.2524 197.97 60.2112 196.649L13.4924 166.419C11.2452 164.965 9.88803 162.471 9.88794 159.794V155.752C9.888 153.076 11.2443 150.582 13.4905 149.128L50.925 124.891V37.2715C50.925 33.7298 52.9017 30.4843 56.0481 28.8584L92.7678 9.88379Z" fill="white"/>
<path d="M92.7678 9.88379L88.6365 1.88804L88.6362 1.8882L92.7678 9.88379ZM102.222 91.6797H93.2219V108.228L107.113 99.2345L102.222 91.6797ZM133 71.7529L137.892 64.1981L133 61.0313L128.109 64.1981L133 71.7529ZM252.509 149.128L257.4 141.573L257.4 141.573L252.509 149.128ZM256.112 155.752L265.112 155.752L265.112 155.752L256.112 155.752ZM256.112 159.794L265.112 159.794V159.794H256.112ZM252.507 166.419L247.618 158.863L247.618 158.863L252.507 166.419ZM205.788 196.649L210.678 204.206L210.678 204.205L205.788 196.649ZM199.057 196.729L194.35 204.4L194.35 204.4L199.057 196.729ZM133 156.195L137.707 148.524L133 145.636L128.293 148.524L133 156.195ZM66.9436 196.729L62.2365 189.059L62.2364 189.059L66.9436 196.729ZM60.2112 196.649L55.3218 204.205L55.3219 204.206L60.2112 196.649ZM13.4924 166.419L8.60284 173.975L8.60309 173.975L13.4924 166.419ZM9.88794 159.794L0.887939 159.794L0.887939 159.794L9.88794 159.794ZM9.88794 155.752L0.887939 155.752V155.752H9.88794ZM13.4905 149.128L8.59909 141.573L8.59878 141.573L13.4905 149.128ZM50.925 124.891L55.8164 132.445L59.925 129.785V124.891H50.925ZM56.0481 28.8584L60.1797 36.854L60.1797 36.854L56.0481 28.8584ZM92.7678 9.88379L96.8992 17.8795C95.2212 18.7465 93.2219 17.5285 93.2219 15.6406H102.222H111.222C111.222 4.04387 98.9399 -3.43566 88.6365 1.88804L92.7678 9.88379ZM102.222 15.6406H93.2219V91.6797H102.222H111.222V15.6406H102.222ZM102.222 91.6797L107.113 99.2345L137.891 79.3078L133 71.7529L128.109 64.1981L97.3307 84.1248L102.222 91.6797ZM133 71.7529L128.109 79.3077L247.618 156.683L252.509 149.128L257.4 141.573L137.892 64.1981L133 71.7529ZM252.509 149.128L247.618 156.683C247.302 156.478 247.112 156.128 247.112 155.752L256.112 155.752L265.112 155.752C265.111 150.024 262.209 144.686 257.4 141.573L252.509 149.128ZM256.112 155.752H247.112V159.794H256.112H265.112V155.752H256.112ZM256.112 159.794L247.112 159.794C247.112 159.417 247.303 159.067 247.618 158.863L252.507 166.419L257.396 173.975C262.206 170.863 265.111 165.524 265.112 159.794L256.112 159.794ZM252.507 166.419L247.618 158.863L200.899 189.093L205.788 196.649L210.678 204.205L257.396 173.975L252.507 166.419ZM205.788 196.649L200.899 189.093C201.769 188.53 202.883 188.518 203.764 189.059L199.057 196.729L194.35 204.4C199.375 207.484 205.725 207.41 210.678 204.206L205.788 196.649ZM199.057 196.729L203.764 189.059L137.707 148.524L133 156.195L128.293 163.866L194.35 204.4L199.057 196.729ZM133 156.195L128.293 148.524L62.2365 189.059L66.9436 196.729L71.6507 204.4L137.707 163.866L133 156.195ZM66.9436 196.729L62.2364 189.059C63.1171 188.518 64.2307 188.531 65.1004 189.093L60.2112 196.649L55.3219 204.206C60.2741 207.41 66.6256 207.484 71.6508 204.4L66.9436 196.729ZM60.2112 196.649L65.1005 189.093L18.3818 158.863L13.4924 166.419L8.60309 173.975L55.3218 204.205L60.2112 196.649ZM13.4924 166.419L18.382 158.863C18.6969 159.067 18.8879 159.417 18.8879 159.794L9.88794 159.794L0.887939 159.794C0.888141 165.524 3.79342 170.863 8.60284 173.975L13.4924 166.419ZM9.88794 159.794H18.8879V155.752H9.88794H0.887939V159.794H9.88794ZM9.88794 155.752L18.8879 155.752C18.8879 156.128 18.6973 156.478 18.3822 156.682L13.4905 149.128L8.59878 141.573C3.79126 144.686 0.888075 150.024 0.887939 155.752L9.88794 155.752ZM13.4905 149.128L18.3819 156.683L55.8164 132.445L50.925 124.891L46.0337 117.336L8.59909 141.573L13.4905 149.128ZM50.925 124.891H59.925V37.2715H50.925H41.925V124.891H50.925ZM50.925 37.2715H59.925C59.925 37.0965 60.0228 36.9351 60.1797 36.854L56.0481 28.8584L51.9165 20.8628C45.7805 24.0335 41.925 30.3631 41.925 37.2715H50.925ZM56.0481 28.8584L60.1797 36.854L96.8995 17.8794L92.7678 9.88379L88.6362 1.8882L51.9164 20.8628L56.0481 28.8584Z" fill="black"/>
</svg>
